<svg width="100" height="100" viewBox="0 0 100 100" fill="none" xmlns="http://www.w3.org/2000/svg">
<path d="M23.4375 57.8125C23.4375 58.6623 23.6895 59.4931 24.1617 60.1997C24.6338 60.9063 25.3049 61.4571 26.09 61.7823C26.8752 62.1075 27.7391 62.1926 28.5727 62.0268C29.4062 61.861 30.1718 61.4518 30.7727 60.8508C31.3737 60.2499 31.7829 59.4843 31.9487 58.6508C32.1145 57.8173 32.0294 56.9533 31.7042 56.1682C31.3789 55.383 30.8282 54.7119 30.1216 54.2398C29.415 53.7676 28.5842 53.5156 27.7344 53.5156C26.595 53.5165 25.5026 53.9694 24.6969 54.7751C23.8913 55.5807 23.4383 56.6732 23.4375 57.8125ZM27.7344 56.6406C27.9661 56.6406 28.1927 56.7094 28.3854 56.8381C28.5781 56.9669 28.7283 57.1499 28.817 57.364C28.9057 57.5782 28.9289 57.8138 28.8837 58.0411C28.8385 58.2684 28.7269 58.4773 28.563 58.6411C28.3991 58.805 28.1903 58.9166 27.963 58.9619C27.7357 59.0071 27.5001 58.9839 27.2859 58.8952C27.0718 58.8065 26.8888 58.6563 26.76 58.4636C26.6312 58.2708 26.5625 58.0443 26.5625 57.8125C26.5629 57.5018 26.6865 57.204 26.9062 56.9843C27.1259 56.7646 27.4237 56.641 27.7344 56.6406Z" fill="#FD5D07"/>
<path d="M3.125 98.4374H28.125C28.5394 98.4374 28.9368 98.2728 29.2299 97.9798C29.5229 97.6867 29.6875 97.2893 29.6875 96.8749V78.1249C29.6875 76.4673 29.029 74.8776 27.8569 73.7055C26.6848 72.5334 25.0951 71.8749 23.4375 71.8749H20.2641C21.5875 70.8982 22.569 69.5287 23.0685 67.9615C23.568 66.3943 23.5602 64.7094 23.0461 63.147C22.532 61.5845 21.5378 60.2242 20.2053 59.2599C18.8728 58.2955 17.2699 57.7764 15.625 57.7764C13.9801 57.7764 12.3772 58.2955 11.0447 59.2599C9.71219 60.2242 8.71804 61.5845 8.20392 63.147C7.6898 64.7094 7.68195 66.3943 8.18149 67.9615C8.68103 69.5287 9.66246 70.8982 10.9859 71.8749H7.8125C6.1549 71.8749 4.56519 72.5334 3.39308 73.7055C2.22098 74.8776 1.5625 76.4673 1.5625 78.1249V96.8749C1.5625 97.2893 1.72712 97.6867 2.02015 97.9798C2.31317 98.2728 2.7106 98.4374 3.125 98.4374ZM10.9375 65.6249C10.9375 64.6978 11.2124 63.7915 11.7275 63.0207C12.2426 62.2498 12.9746 61.649 13.8312 61.2942C14.6877 60.9394 15.6302 60.8466 16.5395 61.0275C17.4488 61.2083 18.284 61.6548 18.9396 62.3103C19.5951 62.9659 20.0416 63.8011 20.2224 64.7104C20.4033 65.6197 20.3105 66.5622 19.9557 67.4187C19.6009 68.2753 19.0001 69.0073 18.2292 69.5224C17.4584 70.0375 16.5521 70.3124 15.625 70.3124C14.3818 70.3124 13.1895 69.8185 12.3104 68.9395C11.4314 68.0604 10.9375 66.8681 10.9375 65.6249ZM4.6875 78.1249C4.6875 77.2961 5.01674 76.5012 5.60279 75.9152C6.18884 75.3291 6.9837 74.9999 7.8125 74.9999H23.4375C24.2663 74.9999 25.0612 75.3291 25.6472 75.9152C26.2333 76.5012 26.5625 77.2961 26.5625 78.1249V95.3124H4.6875V78.1249Z" fill="#FD5D07"/>
<path d="M75.7812 23.4375H50.2594L49.1844 18.4234C49.1096 18.0736 48.9171 17.7601 48.639 17.5351C48.3608 17.3102 48.014 17.1875 47.6562 17.1875H41.4062V20.3125H46.3922L50.8156 40.9516C50.8904 41.3014 51.0829 41.6149 51.361 41.8399C51.6392 42.0648 51.986 42.1875 52.3438 42.1875H71.0938C71.4299 42.1875 71.7571 42.0791 72.0267 41.8784C72.2964 41.6778 72.4942 41.3954 72.5906 41.0734L77.2781 25.4484C77.348 25.2151 77.3624 24.9687 77.3202 24.7289C77.2779 24.489 77.1802 24.2624 77.0347 24.067C76.8893 23.8717 76.7002 23.713 76.4826 23.6037C76.265 23.4944 76.0248 23.4375 75.7812 23.4375ZM69.9313 39.0625H53.6078L50.9281 26.5625H73.6812L69.9313 39.0625Z" fill="#FD5D07"/>
<path d="M67.9688 48.4375C69.2632 48.4375 70.3125 47.3882 70.3125 46.0938C70.3125 44.7993 69.2632 43.75 67.9688 43.75C66.6743 43.75 65.625 44.7993 65.625 46.0938C65.625 47.3882 66.6743 48.4375 67.9688 48.4375Z" fill="#FD5D07"/>
<path d="M55.4688 48.4375C56.7632 48.4375 57.8125 47.3882 57.8125 46.0938C57.8125 44.7993 56.7632 43.75 55.4688 43.75C54.1743 43.75 53.125 44.7993 53.125 46.0938C53.125 47.3882 54.1743 48.4375 55.4688 48.4375Z" fill="#FD5D07"/>
<path d="M59.3747 1.5625C54.1045 1.56221 48.9292 2.96488 44.3804 5.62643C39.8316 8.28798 36.0733 12.1125 33.4916 16.707C30.9099 21.3016 29.5978 26.5006 29.6901 31.77C29.7824 37.0394 31.2758 42.1893 34.0169 46.6906C33.1278 47.758 32.6432 49.1046 32.6481 50.4938C32.6498 52.0854 33.2828 53.6113 34.4082 54.7368C35.5337 55.8622 37.0596 56.4952 38.6513 56.4969C39.8942 56.4962 41.1054 56.1048 42.1138 55.3781C47.1358 59.0079 53.1783 60.954 59.3747 60.9375C67.2483 60.9375 74.7994 57.8097 80.3669 52.2422C85.9344 46.6747 89.0622 39.1236 89.0622 31.25C89.0622 23.3764 85.9344 15.8253 80.3669 10.2578C74.7994 4.69028 67.2483 1.5625 59.3747 1.5625ZM59.3747 57.8125C53.426 57.8258 47.6487 55.8207 42.9872 52.125C42.6692 51.8751 42.2666 51.7582 41.8642 51.799C41.4617 51.8398 41.0908 52.0351 40.8294 52.3438C40.5688 52.6549 40.2451 52.9072 39.8797 53.0838C39.5143 53.2604 39.1155 53.3573 38.7098 53.3681C38.3041 53.3789 37.9007 53.3034 37.5264 53.1465C37.1521 52.9896 36.8154 52.755 36.5387 52.4582C36.2619 52.1613 36.0514 51.809 35.9211 51.4247C35.7908 51.0403 35.7436 50.6326 35.7828 50.2287C35.8219 49.8247 35.9465 49.4337 36.1482 49.0815C36.3499 48.7294 36.6242 48.4241 36.9528 48.1859C37.2767 47.9471 37.496 47.5926 37.565 47.1962C37.6339 46.7997 37.5473 46.392 37.3231 46.0578C34.0205 41.1394 32.4568 35.2581 32.8809 29.3489C33.3049 23.4397 35.6922 17.8419 39.6632 13.4454C43.6343 9.04893 48.9611 6.10619 54.7969 5.08505C60.6326 4.0639 66.6422 5.02298 71.8702 7.80979C77.0982 10.5966 81.2445 15.0512 83.6498 20.4653C86.0552 25.8794 86.5816 31.9422 85.1453 37.6898C83.709 43.4375 80.3924 48.5399 75.7229 52.1861C71.0535 55.8322 65.2991 57.8126 59.3747 57.8125Z" fill="#FD5D07"/>
<path d="M73.4375 98.4375C73.8519 98.4375 74.2493 98.2729 74.5424 97.9799C74.8354 97.6868 75 97.2894 75 96.875V78.125C75 77.7106 74.8354 77.3132 74.5424 77.0201C74.2493 76.7271 73.8519 76.5625 73.4375 76.5625H64.0625C63.6481 76.5625 63.2507 76.7271 62.9576 77.0201C62.6646 77.3132 62.5 77.7106 62.5 78.125V96.875C62.5 97.2894 62.6646 97.6868 62.9576 97.9799C63.2507 98.2729 63.6481 98.4375 64.0625 98.4375H73.4375ZM65.625 79.6875H71.875V95.3125H65.625V79.6875Z" fill="#FD5D07"/>
<path d="M45.3125 85.9375C44.8981 85.9375 44.5007 86.1021 44.2076 86.3951C43.9146 86.6882 43.75 87.0856 43.75 87.5V96.875C43.75 97.2894 43.9146 97.6868 44.2076 97.9799C44.5007 98.2729 44.8981 98.4375 45.3125 98.4375H54.6875C55.1019 98.4375 55.4993 98.2729 55.7924 97.9799C56.0854 97.6868 56.25 97.2894 56.25 96.875V87.5C56.25 87.0856 56.0854 86.6882 55.7924 86.3951C55.4993 86.1021 55.1019 85.9375 54.6875 85.9375H45.3125ZM53.125 95.3125H46.875V89.0625H53.125V95.3125Z" fill="#FD5D07"/>
<path d="M93.75 96.8754V71.8754H96.875C97.1652 71.8754 97.4496 71.7946 97.6965 71.642C97.9433 71.4895 98.1428 71.2712 98.2725 71.0117C98.4023 70.7521 98.4573 70.4616 98.4312 70.1726C98.4051 69.8836 98.2991 69.6075 98.125 69.3754L88.75 56.8754C88.5981 56.6908 88.4073 56.5422 88.1912 56.4401C87.975 56.3381 87.739 56.2852 87.5 56.2852C87.261 56.2852 87.025 56.3381 86.8088 56.4401C86.5927 56.5422 86.4019 56.6908 86.25 56.8754L76.875 69.3754C76.7009 69.6075 76.5949 69.8836 76.5688 70.1726C76.5428 70.4616 76.5977 70.7521 76.7275 71.0117C76.8572 71.2712 77.0567 71.4895 77.3035 71.642C77.5504 71.7946 77.8348 71.8754 78.125 71.8754H81.25V96.8754C81.25 97.2898 81.4146 97.6872 81.7076 97.9802C82.0007 98.2733 82.3981 98.4379 82.8125 98.4379H92.1875C92.6019 98.4379 92.9993 98.2733 93.2924 97.9802C93.5854 97.6872 93.75 97.2898 93.75 96.8754ZM90.625 70.3129V95.3129H84.375V70.3129C84.375 69.8985 84.2104 69.5011 83.9174 69.208C83.6243 68.915 83.2269 68.7504 82.8125 68.7504H81.25L87.5 60.4176L93.75 68.7504H92.1875C91.7731 68.7504 91.3757 68.915 91.0826 69.208C90.7896 69.5011 90.625 69.8985 90.625 70.3129Z" fill="#FD5D07"/>
</svg>
